<?xml version="1.0" encoding="UTF-8" standalone="no"?><!DOCTYPE svg PUBLIC "-//W3C//DTD SVG 1.1//EN" "http://www.w3.org/Graphics/SVG/1.1/DTD/svg11.dtd"><svg width="100%" height="100%" viewBox="0 0 143 225" version="1.1" xmlns="http://www.w3.org/2000/svg" xmlns:xlink="http://www.w3.org/1999/xlink" xml:space="preserve" xmlns:serif="http://www.serif.com/" style="fill-rule:evenodd;clip-rule:evenodd;stroke-linejoin:round;stroke-miterlimit:2;"><path d="M117.253,0l-117.253,0l0,25.352l142.606,0c0,-14.001 -11.35,-25.352 -25.353,-25.352Z" style="fill:#00b106;fill-rule:nonzero;"/><path d="M22.209,145.369c4.957,-1.757 10.266,-2.764 15.819,-2.764c26.213,0 47.535,21.323 47.535,47.536l-0.001,31.69l28.522,-0c14.003,-0 25.353,-11.351 25.353,-25.352l0,-158.451l-139.437,-0l22.209,107.341Z" style="fill:#656500;fill-rule:nonzero;"/><path d="M38.028,155.281c-4.681,-0 -9.144,0.941 -13.225,2.623c-12.678,5.221 -21.634,17.696 -21.634,32.236c-0,19.222 15.637,34.859 34.859,34.859c5.153,0 10.031,-1.153 14.438,-3.169c5.672,-2.595 10.531,-6.654 14.084,-11.71c3.978,-5.664 6.338,-12.547 6.338,-19.98c-0,-19.221 -15.638,-34.859 -34.86,-34.859Z" style="fill:#656500;fill-rule:nonzero;"/><path d="M49.619,71.168c-10.507,9.364 -15.138,21.839 -10.041,28.208c1.088,1.335 2.528,2.336 4.16,2.886c1.262,0.432 2.581,0.666 3.915,0.694c0.025,-0.033 0.053,-0.073 0.078,-0.105c11.557,-14.942 30.322,-30.655 48.169,-38.349c-0.003,0.057 -22.109,15.21 -37.997,34.557c-0.487,0.602 -13.587,16.613 -17.766,31.526l6.566,3.79c1.516,-6.529 3.953,-12.808 7.241,-18.648c0.337,1.388 0.95,2.693 1.806,3.836c4.828,6.595 17.847,4.058 28.509,-5.138c26.666,-22.995 27.582,-60.475 27.582,-60.475c-0,0 -35.56,-6.543 -62.222,17.218Z" style="fill:#fff;fill-rule:nonzero;"/></svg>