<?xml version="1.0" encoding="UTF-8" standalone="no"?><!DOCTYPE svg PUBLIC "-//W3C//DTD SVG 1.1//EN" "http://www.w3.org/Graphics/SVG/1.1/DTD/svg11.dtd"><svg width="100%" height="100%" viewBox="0 0 143 225" version="1.1" xmlns="http://www.w3.org/2000/svg" xmlns:xlink="http://www.w3.org/1999/xlink" xml:space="preserve" xmlns:serif="http://www.serif.com/" style="fill-rule:evenodd;clip-rule:evenodd;stroke-linejoin:round;stroke-miterlimit:2;"><path d="M117.253,0l-117.253,0l0,25.352l142.606,0c0,-14.001 -11.35,-25.352 -25.353,-25.352Z" style="fill:#f30000;fill-rule:nonzero;"/><path d="M22.209,145.369c4.957,-1.757 10.267,-2.764 15.819,-2.764c26.213,0 47.535,21.323 47.535,47.536l-0.001,31.69l28.522,-0c14.003,-0 25.353,-11.351 25.353,-25.352l0,-158.451l-139.437,-0l22.209,107.341Z" style="fill:#656500;fill-rule:nonzero;"/><path d="M38.028,155.281c-4.681,-0 -9.143,0.941 -13.225,2.623c-12.679,5.221 -21.634,17.696 -21.634,32.236c0,19.222 15.638,34.859 34.859,34.859c5.154,0 10.031,-1.153 14.438,-3.169c5.671,-2.595 10.531,-6.654 14.084,-11.71c3.978,-5.664 6.337,-12.547 6.337,-19.98c0,-19.221 -15.637,-34.859 -34.859,-34.859Z" style="fill:#656500;fill-rule:nonzero;"/><path d="M108.125,124.26l0,-28.868l-30.178,-23.795l-30.181,23.795l-0,28.868l23.618,0.001l0,-20.339l13.122,-0l0,20.338l23.619,-0Z" style="fill:#fff;"/><path d="M41.739,96.783l36.208,-28.547l36.425,28.722l4.378,-5.552l-10.778,-8.499l-0,-21.486l-13.884,-0l-0,10.54l-15.966,-12.586l-40.622,32.031l4.239,5.377Z" style="fill:#fff;"/></svg>