<?xml version="1.0" encoding="UTF-8" standalone="no"?><!DOCTYPE svg PUBLIC "-//W3C//DTD SVG 1.1//EN" "http://www.w3.org/Graphics/SVG/1.1/DTD/svg11.dtd"><svg width="100%" height="100%" viewBox="0 0 143 225" version="1.1" xmlns="http://www.w3.org/2000/svg" xmlns:xlink="http://www.w3.org/1999/xlink" xml:space="preserve" xmlns:serif="http://www.serif.com/" style="fill-rule:evenodd;clip-rule:evenodd;stroke-linejoin:round;stroke-miterlimit:2;"><path d="M117.253,0l-117.253,0l0,25.352l142.606,0c0,-14.001 -11.35,-25.352 -25.353,-25.352Z" style="fill:#f1c700;fill-rule:nonzero;"/><path d="M22.209,145.369c4.957,-1.757 10.266,-2.764 15.819,-2.764c26.213,0 47.535,21.323 47.535,47.536l-0.001,31.69l28.522,-0c14.003,-0 25.353,-11.351 25.353,-25.352l0,-158.451l-139.437,-0l22.209,107.341Z" style="fill:#656500;fill-rule:nonzero;"/><path d="M38.028,155.281c-4.681,-0 -9.144,0.941 -13.225,2.623c-12.678,5.221 -21.634,17.696 -21.634,32.236c-0,19.222 15.637,34.859 34.859,34.859c5.153,0 10.031,-1.153 14.438,-3.169c5.672,-2.595 10.531,-6.654 14.084,-11.71c3.978,-5.664 6.338,-12.547 6.338,-19.98c-0,-19.221 -15.638,-34.859 -34.86,-34.859Z" style="fill:#656500;fill-rule:nonzero;"/><path d="M118.75,103.383l-19.828,0l-5.009,-8.64c-0.335,-0.561 -0.435,-1.233 -0.275,-1.867c0.156,-0.635 0.562,-1.18 1.121,-1.518l10.688,-6.431c0.562,-0.336 1.234,-0.435 1.869,-0.277c0.634,0.159 1.178,0.563 1.515,1.123l9.072,15.63c0.363,0.622 0.647,1.288 0.847,1.98Zm-0.144,5.221l-27.24,0l-0,-5.314c-0.007,-0.285 -0.1,-0.562 -0.269,-0.792c-0.172,-0.23 -0.406,-0.403 -0.675,-0.495c-0.272,-0.092 -0.563,-0.1 -0.838,-0.02c-0.275,0.078 -0.518,0.239 -0.696,0.461l-9.85,12.008c-0.676,0.819 -1.044,1.846 -1.044,2.907c-0,1.06 0.368,2.088 1.044,2.907l9.909,11.982c0.181,0.225 0.428,0.388 0.709,0.465c0.278,0.077 0.575,0.066 0.847,-0.033c0.272,-0.098 0.51,-0.279 0.672,-0.517c0.166,-0.238 0.253,-0.522 0.25,-0.812l-0,-5.314l12.388,-0.042c1.531,-0.004 3.031,-0.411 4.353,-1.178c1.321,-0.769 2.418,-1.871 3.181,-3.197l6.556,-11.501c0.285,-0.481 0.519,-0.988 0.703,-1.515Zm-47.684,17.34c0.328,-0.001 0.653,-0.068 0.956,-0.197c0.303,-0.129 0.578,-0.317 0.809,-0.554c0.229,-0.236 0.41,-0.516 0.529,-0.823c0.118,-0.308 0.175,-0.635 0.168,-0.965l-0.231,-12.473c-0.009,-0.65 -0.275,-1.269 -0.74,-1.723c-0.463,-0.455 -1.088,-0.708 -1.738,-0.706l-9.984,-0l-9.91,17.187c0.694,0.175 1.406,0.263 2.122,0.262l18.019,-0.008Zm-32.235,-15.791l6.66,11.467c0.284,0.476 0.612,0.923 0.981,1.337l13.609,-23.594l4.604,2.641c0.247,0.143 0.534,0.205 0.818,0.179c0.288,-0.026 0.557,-0.138 0.775,-0.323c0.219,-0.185 0.378,-0.433 0.45,-0.71c0.075,-0.277 0.06,-0.57 -0.037,-0.839l-5.503,-14.53c-0.375,-0.998 -1.088,-1.834 -2.016,-2.362c-0.928,-0.529 -2.009,-0.717 -3.059,-0.532l-15.319,2.539c-0.288,0.045 -0.553,0.178 -0.759,0.381c-0.207,0.204 -0.347,0.466 -0.397,0.752c-0.053,0.286 -0.013,0.581 0.112,0.843c0.122,0.263 0.325,0.48 0.578,0.622l4.604,2.64l-6.116,10.739c-0.772,1.33 -1.175,2.84 -1.172,4.377c0.003,1.537 0.413,3.046 1.187,4.373Zm25.632,-52.619l-8.978,15.613c-0.163,0.284 -0.266,0.597 -0.307,0.922c-0.037,0.324 -0.015,0.653 0.075,0.968c0.088,0.315 0.238,0.61 0.441,0.866c0.203,0.257 0.453,0.47 0.741,0.629l10.915,6.042c0.563,0.305 1.222,0.38 1.841,0.208c0.616,-0.172 1.144,-0.577 1.469,-1.13l4.984,-8.657l-9.884,-17.17c-0.5,0.514 -0.938,1.088 -1.297,1.709Zm15.403,24.643l15.334,2.538c1.047,0.171 2.119,-0.027 3.035,-0.559c0.918,-0.533 1.622,-1.367 1.99,-2.36l5.425,-14.556c0.1,-0.27 0.116,-0.564 0.041,-0.843c-0.072,-0.279 -0.231,-0.528 -0.45,-0.713c-0.222,-0.186 -0.494,-0.298 -0.781,-0.323c-0.288,-0.024 -0.575,0.041 -0.822,0.187l-4.597,2.665l-6.238,-10.755c-0.768,-1.322 -1.868,-2.419 -3.197,-3.18c-1.324,-0.76 -2.831,-1.158 -4.359,-1.153l-13.253,0.042c-0.55,0.007 -1.1,0.067 -1.641,0.178l13.625,23.568l-4.593,2.665c-0.257,0.144 -0.46,0.362 -0.582,0.626c-0.121,0.264 -0.159,0.559 -0.106,0.846c0.053,0.286 0.194,0.549 0.403,0.751c0.21,0.202 0.478,0.333 0.766,0.376Z" style="fill:#fff;fill-rule:nonzero;"/></svg>